<svg width="77" height="77" viewBox="0 0 77 77" fill="none" xmlns="http://www.w3.org/2000/svg">
<path d="M51.02 72.328C51.02 73.9493 50.636 75.144 49.868 75.912C49.1853 76.5947 48.0333 76.936 46.412 76.936H30.54C28.9187 76.936 27.724 76.5947 26.956 75.912C26.2733 75.144 25.932 73.9493 25.932 72.328V50.824H5.068C3.44667 50.824 2.252 50.4827 1.484 49.8C0.801333 49.032 0.46 47.8373 0.46 46.216V31.624C0.46 30.0027 0.801333 28.8507 1.484 28.168C2.252 27.4 3.44667 27.016 5.068 27.016H25.932V5.51199C25.932 3.89066 26.2733 2.73866 26.956 2.056C27.724 1.288 28.9187 0.903999 30.54 0.903999H46.412C48.0333 0.903999 49.1853 1.288 49.868 2.056C50.636 2.73866 51.02 3.89066 51.02 5.51199V27.016H71.884C73.5053 27.016 74.6573 27.4 75.34 28.168C76.108 28.8507 76.492 30.0027 76.492 31.624V46.216C76.492 47.8373 76.108 49.032 75.34 49.8C74.6573 50.4827 73.5053 50.824 71.884 50.824H51.02V72.328Z" fill="black"/>
</svg>
